<svg xmlns="http://www.w3.org/2000/svg" width="1232.252" height="1273.354" viewBox="0 0 1232.252 1273.354">
  <g id="Group_1" data-name="Group 1" transform="translate(-948.025 296.636)">
    <g id="Rectangle_1" data-name="Rectangle 1" transform="translate(1368.519 575.789) rotate(-45)" fill="none" stroke="#e31100" stroke-width="6">
      <rect width="164" height="269" rx="17" stroke="none"/>
      <rect x="3" y="3" width="158" height="263" rx="14" fill="none"/>
    </g>
    <g id="Rectangle_2" data-name="Rectangle 2" transform="translate(948.025 276.212) rotate(-45)" fill="none" stroke="#e31100" stroke-width="6">
      <rect width="250" height="432" rx="30" stroke="none"/>
      <rect x="3" y="3" width="244" height="426" rx="27" fill="none"/>
    </g>
    <g id="Rectangle_3" data-name="Rectangle 3" transform="translate(1389.025 241.212) rotate(-45)" fill="none" stroke="#e31100" stroke-width="6">
      <rect width="628" height="491" rx="30" stroke="none"/>
      <rect x="3" y="3" width="622" height="485" rx="27" fill="none"/>
    </g>
    <g id="Rectangle_4" data-name="Rectangle 4" transform="translate(1250.432 693.876) rotate(-45)" fill="none" stroke="#e31100" stroke-width="6">
      <rect width="100" height="98" rx="17" stroke="none"/>
      <rect x="3" y="3" width="94" height="92" rx="14" fill="none"/>
    </g>
    <g id="Rectangle_5" data-name="Rectangle 5" transform="translate(1610.349 817.619) rotate(-45)" fill="none" stroke="#e31100" stroke-width="6">
      <rect width="416" height="225" stroke="none"/>
      <rect x="3" y="3" width="410" height="219" fill="none"/>
    </g>
    <g id="Rectangle_6" data-name="Rectangle 6" transform="translate(1001.954 -119.859) rotate(-45)" fill="none" stroke="#e31100" stroke-width="6">
      <rect width="250" height="442" rx="12" stroke="none"/>
      <rect x="3" y="3" width="244" height="436" rx="9" fill="none"/>
    </g>
  </g>
</svg>
